<?xml version="1.0" encoding="utf-8"?>
<!-- Generator: Adobe Illustrator 27.0.1, SVG Export Plug-In . SVG Version: 6.00 Build 0)  -->
<svg version="1.1" id="レイヤー_2" xmlns="http://www.w3.org/2000/svg" xmlns:xlink="http://www.w3.org/1999/xlink" x="0px"
	 y="0px" viewBox="0 0 560 560" style="enable-background:new 0 0 560 560;" xml:space="preserve">
<style type="text/css">
	.st0{fill:none;stroke:#000000;stroke-width:2;stroke-linecap:round;stroke-linejoin:round;stroke-miterlimit:10;}
</style>
<path class="st0" d="M505.9,275.5c-1.2-10.7-3.1-21.2-6.3-31.5c-7.5-24.1-21.7-43.9-40-61c-4.8-4.4-9.7-8.8-15.4-12.1
	c-4.6-2.7-4.6-7.5-5.5-12c-7.4-34.6-18.3-67.9-36.5-98.5c-7.1-11.9-15.3-22.9-26.9-31.1c-23.8-16.6-48.6-15.6-70.5,4.6
	c-17.7,16.3-30.4,36.1-39,58.5c-1.1,2.9-2.7,5.5-5,7.5l-1.5-0.5c1.6,0.8,2.2,1.9,2,3.5c-0.3,2.2-0.1,4.3-0.4,6.5
	c-1.2,8.4-2.7,16.9-1.7,25.5c0.1,0.6,0.1,1.2,0.2,1.8c0,0.2,0.1,0.5,0.1,0.7c0,0.3,0.1,0.7,0.1,1c0,0.3,0.1,0.6,0.2,0.9
	c0,0.3,0.1,0.5,0.1,0.8c0.1,0.4,0.1,0.7,0.2,1.1c0,0.2,0.1,0.4,0.1,0.6c0.1,0.4,0.2,0.8,0.2,1.1c0,0.2,0.1,0.3,0.1,0.5
	c0.1,0.4,0.2,0.8,0.3,1.2c0,0.1,0.1,0.2,0.1,0.4c0.1,0.4,0.2,0.9,0.4,1.3c0,0.1,0,0.1,0.1,0.2c1.4,4.6,3.7,8.9,7.3,12.5c0,0,0,0,0,0
	l0,0c0.6,0.6,1.3,1.3,2,1.9c5.7,4.7,11.5,8.8,18.9,9.3l0.1,1.7c0.6,2.3,1.7,4.4,2.9,6.6c9.7,18.2-3.2,30.2-16.4,32.4
	c-12.2,2-23.4-0.3-33.2-8l-0.9-1c-1.8,1.7-3.9,2.9-6.3,4.1c-2.1,1.1-4,1.4-5.9,1.3l0.4,1.1c-1.4,15.8-9.4,26.9-23.5,34
	c-4.5,2.3-9.4,1.1-14,1.8l-0.5,0.7c-8,19.2-12.1,39.2-10.4,60c2.1,25,12.8,46,32.4,62c3.9,3.2,7.7,6.6,12.4,8.6c0.7,0.3,1.4,1,2,0.9
	c2.8-0.2,5.2,0.4,7.4,1.4l-0.9-1.9c0.4-3.6-0.8-7-2.5-10c-7.3-12.8-6.4-25.7-0.4-38.5c11.1-23.4,30.3-38.7,53-49.3
	c30.3-14.2,62.3-21,95.9-18.7c19.1,1.3,37.5,5,54.5,14.4c14.1,7.8,25,18.3,30.4,33.6c3.8,11,5.3,22.1-0.9,33
	c-1.7,2.9-1.5,6.2-1.5,9.5l0.2,0.5c0.8-0.4,1.7-0.6,2.8-0.5c2,0.1,3.8-0.7,5.5-1.9c14.5-10.8,26.4-23.8,31.4-41.6
	C506.2,296.4,507.1,286.2,505.9,275.5z"/>
<path class="st0" d="M245.1,181c1.3,5.5,2.5,10.9,0.1,16.5c-1.9,4.5-5.4,6.5-9.5,8.6c-4.6,2.4-8.6,1.1-12.5-0.7
	c-4.3-2-7.7-5.5-9.5-9.9c-2.5-6.1,1.3-16,6.9-19.5c7.8-4.8,14.5-4,21.5,2.5c0.9,0.8,1.7,1.8,3,2V181z"/>
<path class="st0" d="M187.6,161.4c12,1.7,21.3,7.5,29,16.6l0.6,1.1c1-1.3,2.1-2.3,3.4-3.1c3-1.8,5.8-2.8,8.5-3l0-1.5
	c-0.1-7.3,0.1-14.4,2.4-21.5c4.2-12.8,15.2-22.5,26.1-21l1.1,0.7c-0.1-6.8,1.1-13.5,2-20.2c0.3-2.2,0.1-4.4,0.4-6.5
	c0.2-1.6-0.3-2.8-2-3.5c-15.4-7.3-30-16.3-46-22.5c-24.5-9.5-49.2-18-75-23c-14.4-2.8-28.9-4-43.5-1.9c-9.1,1.3-18.2,3.2-26,8.5
	c-15.2,10.4-18.9,27.4-11,44.9c8.2,18.5,23,30.6,40,40.5c18.2,10.7,37.6,18.6,57.5,25.5c1.8,0.6,3.7,1.3,5.5,2l0.9,0.3
	C167.1,165,176,159.8,187.6,161.4z"/>
<path class="st0" d="M223.1,205.4c-4.3-2-7.7-5.5-9.5-9.9c-2-4.8,0-12.1,3.8-16.6l-0.8-0.8c-7.7-9-17-14.9-29-16.6
	c-11.6-1.7-20.5,3.5-26.1,12.4c-3,4.7-1.7,12.2,1.1,18.2c3.9,8.3,10.2,14.3,17.5,19.5l0.4,0.2c-0.2,0.2-0.3,0.4-0.5,0.8
	c-3.9,9.8-1.2,21.3,7.2,28c1.8,1.4,3.1,4.3,5.4,3.9c4.7-0.7,9.5,0.5,14-1.8c14.1-7.1,22.1-18.3,23.5-34l0.3-1.1
	C227.8,207.4,225.5,206.5,223.1,205.4z"/>
<path class="st0" d="M289.6,172l0-1.7c-7.4-0.5-13.2-4.7-18.9-9.3c-8.1-6.6-10.4-16-11.6-25.9c-0.2-1.9-0.3-3.8-0.3-5.7l-1.1-0.3
	c-10.8-1.5-21.9,8.2-26.1,21c-2.3,7.1-2.5,14.2-2.4,21.5l-0.2,1.5c4.5-0.4,8.8,1.4,13.1,5.5c0.9,0.8,1.7,1.8,3,2v0.5
	c1.3,5.5,2.5,10.9,0.1,16.5c-0.8,1.8-1.9,3.3-3.1,4.5l0.8,1c9.9,7.7,21.1,10,33.2,8c13.2-2.2,26.1-14.3,16.4-32.4
	C291.3,176.4,290.2,174.3,289.6,172z"/>
<path class="st0" d="M466,307.5c-5.4-15.3-16.2-25.8-30.4-33.6c-17.1-9.4-35.4-13.1-54.5-14.4c-33.6-2.3-65.7,4.5-95.9,18.7
	c-22.7,10.6-42,25.9-53,49.3c-6,12.8-6.9,25.7,0.4,38.5c1.7,3,2.9,6.3,2.5,10l0.9,1.9c3.5,1.7,6.6,4.3,10.1,6.1
	c4.4,2.1,9,3.8,13.5,5.7c4.5-2.2,7.3-6.4,11.4-9.2c2.8-1.9,5.7-3.1,9-3.5c4.5-0.5,7.5,0.9,8.5,5.5l0,0.5c0.3-0.1,0.6,0,1,0.1
	c4.1,1.6,8.8,1.9,12,5.4c0.8,0.9,1.6,1.7,2.5,2.5c5.9,5.6,11.5,6.3,17.4,0.9c9.7-8.8,20.7-9.7,32.6-6.9c10.5,2.4,20.5-0.3,30.5-2.6
	c9.6-2.2,19-5.1,28.5-7.4c6.4-1.5,12.5-3.8,18.6-6.4c10.7-4.4,21-9.2,29.9-16.7c0.3-0.3,1.1-1.1,2-2.1c0-3.2-0.1-6.5,1.5-9.3
	C471.3,329.7,469.8,318.5,466,307.5z M281.4,331c-2.5,28.8-34.6,26.5-33-2.3C250.9,299.9,283,302.1,281.4,331z M338.1,347.4
	c-11.1-2.9-6.3-15.9,3-17.4c5.7,0,13.2-1.2,15.1,6C359,345.8,345.4,350.1,338.1,347.4z M404.1,306.9c-7-28,24.1-36.3,31.9-8.5
	C443,326.4,411.9,334.7,404.1,306.9z"/>
<path class="st0" d="M341.1,330c-9.3,1.5-14.1,14.5-3,17.4c7.3,2.7,20.9-1.6,18-11.4C354.3,328.8,346.8,330,341.1,330z"/>
<path class="st0" d="M436,298.4c7,28-24.1,36.3-31.9,8.5C397.1,278.9,428.2,270.6,436,298.4z"/>
<path class="st0" d="M281.4,331c-2.5,28.8-34.6,26.5-33-2.3C250.9,299.9,283,302.1,281.4,331z"/>
<path class="st0" d="M435.5,526.4c-0.9,1.4-2.9,2.2-4.4,3c-8.7,4.9-18.2,6.6-28,6.9c-20.8,0.7-41.6-1.2-62.5-1.1
	c-15.7,0.1-30.9,2.5-46,6.2c-9.9,2.4-19.5-2.2-24.5-11.5c-2.9-5.3-4.2-11.1-6.4-16.5c-6.2-15.2-12.1-30.4-18.6-45.5
	c-5.2-12.1,2.1-25.5,11.6-27c6-0.9,12.1-1.6,18,1.3c3,1.5,6.4,2.7,10,2.6l1.1-0.6c1.1,2.8,2.9,4.4,6.4,5.1c3.3,0.6,6.8,0.4,10,1.1
	c9.9,2.1,18.7,0,27-5.1c3.6-2.2,7.1-4.3,8.4-8.5c0.9-3,2.6-4.3,5.6-4.5c2.5-0.2,5-0.4,7.5-0.5c13.2-0.7,26.2-2.6,39-6
	c10-2.6,19.2-6.7,27.6-12.3l0.9,1.3c7.2,12.7,14.4,25.3,21.5,38c1.1,1.9,1.7,4,2.5,6l0.3,1.5c-5.3,1-9.6,3.9-13.8,7.5
	c-7.2,6.3-11.3,14.1-11.6,24c-0.3,12.1,5.1,20.8,15.1,26.9c2,1.2,3.7,2.6,5.4,4.1l0.6,0.8C437.2,524.4,436.3,525.2,435.5,526.4z"/>
<path class="st0" d="M321.1,431.2l-4-0.7c-9.3-2.4-19-3.6-25-12.5c-0.2-0.3-0.4-0.5-0.7-0.8l0.2-0.3c1.4-2.5,3.7-3.9,6-5.6
	c5.6-4,12-7.5,14-14.9l0.2-1.1c-2.5-0.5-5.1-2-7.7-4.4c-0.9-0.8-1.7-1.6-2.5-2.5c-3.2-3.5-8-3.8-12-5.4c-0.4-0.1-0.7-0.2-1-0.1
	l0-0.5c-1-4.6-4.1-6-8.5-5.5c-3.3,0.4-6.2,1.5-9,3.5c-4,2.8-6.9,7-11.4,9.2l0.4,0.4c0,3.2-0.3,6.3-0.9,9.5
	c-2.4,12.8,2.4,24.6,15.5,28.6c8,2.5,9.1,7.8,10.3,13.9c0.9,4.3,2.7,6.7,7.1,7.5c3.3,0.6,6.8,0.4,10,1.1c9.9,2.1,18.7,0,27-5.1
	c3.6-2.2,7.1-4.3,8.4-8.5c0.3-0.8,0.6-1.5,1-2.1l-0.9-0.9C332.4,431.2,326.6,431.8,321.1,431.2z"/>
<path class="st0" d="M438,523.9c1.8-1.2,3.9-1.3,6.6-1c9.3,0.9,18.3-0.3,26-6.4c9.2-7.2,11.5-17.3,10.4-28
	c-1.8-17.3-15.4-26.6-31.8-28.2c-8.7-0.9-14.7,2.8-20.5,7.8c-7.2,6.3-11.3,14.1-11.6,24c-0.3,12.1,5.1,20.8,15.1,26.9
	c2,1.2,3.7,2.6,5.4,4.1L438,523.9z"/>
<path class="st0" d="M429.5,404c-11.4,10.7-24.8,18-40,22c-12.8,3.4-25.8,5.3-39,6c-2.5,0.1-5,0.3-7.5,0.5c-2.1,0.1-3.6,0.9-4.6,2.4
	l-0.9-0.9c-5.2-2.8-10.9-2.2-16.5-2.8l-4-0.7c-9.3-2.4-19-3.6-25-12.5c-0.2-0.3-0.4-0.5-0.7-0.8l0.2-0.3c1.4-2.5,3.7-3.9,6-5.6
	c5.6-4,12-7.5,14-14.9l0.2-1.1c0,0,0,0,0,0c3.2,0.6,6.4-0.5,9.8-3.5c9.7-8.8,20.7-9.7,32.6-6.9c10.5,2.4,20.5-0.3,30.5-2.6
	c9.6-2.2,19-5.1,28.5-7.4c3.3-0.8,6.4-1.7,9.5-2.8l1,1.8c1.5,3.1,4.1,5.1,6.9,7.1c3.3,2.3,7.3,3.6,10.2,6.8c0.3,0.3,0.6,0.5,0.9,0.6
	l0,0.5C439.4,395.5,434.2,399.6,429.5,404z"/>
<path class="st0" d="M263.1,176c-6.6-1.4-12.4,0.1-17.5,4.5"/>
<path class="st0" d="M212.6,195c-5.6,1.6-11.3,2.9-14.5,8.5"/>
<path class="st0" d="M362.8,102.5c0.3,4.8-1.8,9.2-3.3,13.5c-7.7,20.9-20.8,37.3-40.9,47.5c-7.1,3.6-14.8,4.6-22.4,6.3
	c-2.4,0.5-4.6,0.7-6.6,0.5"/>
<path class="st0" d="M374.1,355c-2-0.6-3.7-0.9-5.6,0.9c-9.4,9.6-20.2,12.1-32.5,5.6c-0.8-0.4-2-1.3-3,0"/>
<path class="st0" d="M287.1,415.8c1.5,0.3,3.1,0.5,4.3,1.5"/>
</svg>
