<?xml version="1.0" encoding="utf-8"?>
<!-- Generator: Adobe Illustrator 27.0.1, SVG Export Plug-In . SVG Version: 6.00 Build 0)  -->
<svg version="1.1" id="レイヤー_1" xmlns="http://www.w3.org/2000/svg" xmlns:xlink="http://www.w3.org/1999/xlink" x="0px"
	 y="0px" viewBox="0 0 800 800" style="enable-background:new 0 0 800 800;" xml:space="preserve">
<style type="text/css">
	.st0{fill:none;stroke:#F70D0D;stroke-miterlimit:10;}
</style>
<circle class="st0" cx="189" cy="657" r="23.1"/>
<circle class="st0" cx="310.6" cy="719.3" r="23.1"/>
<circle class="st0" cx="611" cy="657" r="23.1"/>
<circle class="st0" cx="489.4" cy="719.3" r="23.1"/>
<path class="st0" d="M487.3,696.3l16-42.4l85.6-3.7c0.6-2.1,1.6-4.1,2.8-5.9l-50-41.1c-40.5,18.2-89.3,28.1-141.7,28.1
	c-52.4,0-101.2-9.9-141.7-28.1l-50,41.1c1.2,1.8,2.1,3.8,2.8,5.9l85.6,3.7l16,42.4c5.3,0.5,10.1,2.8,13.7,6.2l73.6-40l73.6,40
	C477.2,699.1,482,696.8,487.3,696.3z"/>
<path class="st0" d="M511.4,423.9c-29.1-12.9-43.6-2-69,10.7c-18.8,9.4-33,13.3-39.1,14.8c-2.2,0.5-4.4,0.5-6.6,0
	c-6.1-1.4-20.3-5.4-39.1-14.8c-25.4-12.7-39.9-23.6-69-10.7c-29.1,12.9-79,52.5-75.4,111.5c1.7,27.6,16.7,47.9,32.2,61.6
	c42.9,22.1,96.4,34.2,154.5,34.2s111.6-12.1,154.5-34.2c15.5-13.7,30.5-34,32.2-61.6C590.4,476.4,540.5,436.8,511.4,423.9z
	 M296.8,539.6c-25.5,13.8-32.6-19.6-31.8-35.8c0.8-16.1,2-20.4,2-20.4l-9.2-11.2l0.3-3.5l10.2,11.6l1-11l-7.7-9.9l0.7-5
	c0,0,7.5,15.7,35.4,25.9c17.4,6.1,16.9,8.6,16.9,8.6S322.4,525.8,296.8,539.6z M400,562.6c-10.2,0-18.4-5.7-18.4-12.7
	s8.2-12.7,18.4-12.7s18.4,5.7,18.4,12.7S410.2,562.6,400,562.6z M535,503.8c0.8,16.1-6.3,49.5-31.8,35.8
	c-25.5-13.8-17.7-50.7-17.7-50.7s-0.5-2.5,16.9-8.6c27.9-10.2,35.4-25.9,35.4-25.9l0.7,5l-7.7,9.9l1,11l10.2-11.6l0.3,3.5l-9.2,11.2
	C533,483.4,534.2,487.7,535,503.8z"/>
<path class="st0" d="M262.2,454.3c0,0,7.5,15.7,35.4,25.9c17.4,6.1,16.9,8.6,16.9,8.6s7.9,36.9-17.7,50.7
	c-25.5,13.8-32.6-19.6-31.8-35.8c0.8-16.1,2-20.4,2-20.4l-9.2-11.2l0.3-3.5l10.2,11.6l1-11l-7.7-9.9L262.2,454.3z"/>
<path class="st0" d="M537.8,454.3c0,0-7.5,15.7-35.4,25.9c-17.4,6.1-16.9,8.6-16.9,8.6s-7.9,36.9,17.7,50.7
	c25.5,13.8,32.6-19.6,31.8-35.8s-2-20.4-2-20.4l9.2-11.2l-0.3-3.5l-10.2,11.6l-1-11l7.7-9.9L537.8,454.3z"/>
<path class="st0" d="M655.3,448c0-111.8-114.3-221.6-255.3-221.6S144.7,336.1,144.7,448c0,65.8,39.5,117.6,100.8,149.1
	c-15.5-13.7-30.5-34-32.2-61.6c-3.6-59,46.3-98.6,75.4-111.5c29.1-12.9,43.6-2,69,10.7c18.8,9.4,33,13.3,39.1,14.8
	c2.2,0.5,4.4,0.5,6.6,0c6.1-1.4,20.3-5.4,39.1-14.8c25.4-12.7,39.9-23.6,69-10.7c29.1,12.9,79,52.5,75.4,111.5
	c-1.7,27.6-16.7,47.9-32.2,61.6C615.7,565.5,655.3,513.7,655.3,448z"/>
<ellipse class="st0" cx="400" cy="549.9" rx="18.4" ry="12.7"/>
<path class="st0" d="M400,312c-36.2,0-65.5,23.2-65.5,51.8c0,22.1,17.4,40.9,42,48.4v11.7h11.1v-9.2c2.3,0.3,4.6,0.6,6.9,0.7v8.5
	h11.1v-8.5c2.3-0.2,4.6-0.4,6.9-0.7v9.2h11.1v-11.7c24.6-7.5,42-26.3,42-48.4C465.5,335.2,436.2,312,400,312z M378,382.1
	c-3,9.2-11.6,14.6-19.2,12.1c-7.6-2.5-11.4-11.9-8.4-21.1c3-9.2,11.6-14.6,19.2-12.1C377.2,363.5,380.9,373,378,382.1z M441.3,394.3
	c-7.6,2.5-16.3-2.9-19.2-12.1c-3-9.2,0.8-18.6,8.4-21.1c7.6-2.5,16.3,2.9,19.2,12.1C452.7,382.3,448.9,391.8,441.3,394.3z"/>
<ellipse transform="matrix(0.309 -0.9511 0.9511 0.309 -107.5658 607.2492)" class="st0" cx="364.1" cy="377.7" rx="17.5" ry="14.5"/>
<ellipse transform="matrix(0.9511 -0.309 0.309 0.9511 -95.367 153.1778)" class="st0" cx="435.9" cy="377.7" rx="14.5" ry="17.5"/>
<path class="st0" d="M94.4,101.1c-3.2,4.7-7.8,8.4-13.2,10.5L108,348.8l60.3,10.7c25.4-47.1,69.9-87.6,124.8-111.2v-48L94.4,101.1z"
	/>
<circle class="st0" cx="71.3" cy="85.5" r="27.9"/>
<path class="st0" d="M705.6,101.1c3.2,4.7,7.8,8.4,13.2,10.5L692,348.8l-60.3,10.7c-25.4-47.1-69.9-87.6-124.8-111.2v-48
	L705.6,101.1z"/>
<circle class="st0" cx="728.7" cy="85.5" r="27.9"/>
</svg>
